<svg width="151" height="36" viewBox="0 0 151 36" fill="none" xmlns="http://www.w3.org/2000/svg">
<path d="M27.7169 16.5943L27.9915 24C28.0373 25.0743 27.6102 26.08 26.7102 26.9943C25.8102 27.9086 24.5898 28.64 23.0339 29.1886C21.478 29.7371 19.8 29.9886 17.9847 29.9886C16.1695 29.9886 14.4915 29.7143 12.9356 29.1886C11.3797 28.64 10.1593 27.9314 9.25932 26.9943C8.35932 26.08 7.9322 25.0743 7.97797 24L8.25254 16.5943L17.222 20.8229C17.4508 20.9371 17.6949 20.9829 17.9695 20.9829C18.2441 20.9829 18.4881 20.9371 18.7169 20.8229L27.7169 16.5943ZM36 9.00571C36 9.37143 35.8932 9.6 35.6492 9.73714L18.1525 17.9657C18.1068 17.9886 18.061 17.9886 18 17.9886C17.939 17.9886 17.8932 17.9886 17.8475 17.9657L7.65763 13.1429C7.21525 13.6686 6.8339 14.5371 6.54407 15.7486C6.25424 16.96 6.07119 18.3543 6.01017 19.9314C6.6661 20.5029 7.00169 21.3486 7.00169 22.4914C7.00169 23.5657 6.69661 24.4114 6.10169 25.0057L7.00169 35.1543C7.01695 35.3829 6.98644 35.5657 6.87966 35.7486C6.78814 35.9086 6.6661 36 6.4983 36H3.50847C3.35593 36 3.2339 35.9086 3.12712 35.7486C3.02034 35.5886 2.97458 35.3829 3.00508 35.1543L3.90508 25.0057C3.31017 24.4114 3.00508 23.5657 3.00508 22.4914C3.00508 21.3486 3.34068 20.48 4.02712 19.8857C4.1339 16.6629 4.65254 14.08 5.55254 12.16L0.350847 9.71429C0.122034 9.57714 0 9.34857 0 8.98286C0 8.61714 0.10678 8.38857 0.350847 8.25143L17.8475 0.0228577C17.8932 5.22818e-07 17.939 0 18 0C18.061 0 18.1068 5.22818e-07 18.1525 0.0228577L35.6492 8.27429C35.8932 8.38857 36 8.64 36 9.00571Z" fill="#F5F3F5"/>
<path d="M51.6183 13.9091V16.2955H44.0927V13.9091H51.6183ZM45.9506 10.7727H49.0359V23.0625C49.0359 23.4773 49.0984 23.7955 49.2234 24.017C49.354 24.233 49.5245 24.3807 49.7347 24.4602C49.945 24.5398 50.1779 24.5795 50.4336 24.5795C50.6268 24.5795 50.8029 24.5653 50.962 24.5369C51.1268 24.5085 51.2518 24.483 51.337 24.4602L51.8569 26.8722C51.6921 26.929 51.4563 26.9915 51.1495 27.0597C50.8484 27.1278 50.479 27.1676 50.0415 27.179C49.2688 27.2017 48.5728 27.0852 47.9535 26.8295C47.3342 26.5682 46.8427 26.1648 46.479 25.6193C46.1211 25.0739 45.945 24.392 45.9506 23.5739V10.7727ZM57.565 9.54545V27H54.4798V9.54545H57.565ZM60.7376 27V13.9091H63.6864V16.1335H63.8398C64.1126 15.3835 64.5643 14.7983 65.195 14.3778C65.8256 13.9517 66.5785 13.7386 67.4535 13.7386C68.3398 13.7386 69.087 13.9545 69.695 14.3864C70.3086 14.8125 70.7404 15.3949 70.9904 16.1335H71.1268C71.4165 15.4062 71.9052 14.8267 72.5927 14.3949C73.2859 13.9574 74.1069 13.7386 75.0558 13.7386C76.2603 13.7386 77.2433 14.1193 78.0046 14.8807C78.766 15.642 79.1467 16.7528 79.1467 18.2131V27H76.0529V18.6903C76.0529 17.8778 75.837 17.2841 75.4052 16.9091C74.9734 16.5284 74.445 16.3381 73.82 16.3381C73.0756 16.3381 72.4933 16.571 72.0728 17.0369C71.658 17.4972 71.4506 18.0966 71.4506 18.8352V27H68.4251V18.5625C68.4251 17.8864 68.2205 17.3466 67.8114 16.9432C67.408 16.5398 66.8796 16.3381 66.2262 16.3381C65.783 16.3381 65.3796 16.4517 65.016 16.679C64.6523 16.9006 64.3626 17.2159 64.1467 17.625C63.9308 18.0284 63.8228 18.5 63.8228 19.0398V27H60.7376ZM91.0124 31.9091V24.9375H90.8846C90.7255 25.2557 90.4954 25.5937 90.1942 25.9517C89.8931 26.304 89.4954 26.6051 89.0011 26.8551C88.5067 27.1051 87.8846 27.2301 87.1346 27.2301C86.1062 27.2301 85.1857 26.9659 84.3732 26.4375C83.5607 25.9091 82.9187 25.142 82.4471 24.1364C81.9755 23.1307 81.7397 21.9091 81.7397 20.4716C81.7397 19.017 81.9783 17.7898 82.4556 16.7898C82.9386 15.7841 83.5891 15.0256 84.4073 14.5142C85.2255 13.9972 86.1374 13.7386 87.1431 13.7386C87.9102 13.7386 88.5408 13.8693 89.0352 14.1307C89.5295 14.3864 89.9215 14.696 90.2113 15.0597C90.5011 15.4176 90.7255 15.7557 90.8846 16.0739H91.0721V13.9091H94.1062V31.9091H91.0124ZM87.9954 24.6989C88.6488 24.6989 89.2056 24.5227 89.6658 24.1705C90.1261 23.8125 90.4755 23.3153 90.7141 22.679C90.9528 22.0426 91.0721 21.3011 91.0721 20.4545C91.0721 19.608 90.9528 18.8722 90.7141 18.2472C90.4812 17.6222 90.1346 17.1364 89.6744 16.7898C89.2198 16.4432 88.6602 16.2699 87.9954 16.2699C87.3079 16.2699 86.734 16.4489 86.2738 16.8068C85.8136 17.1648 85.467 17.6591 85.234 18.2898C85.0011 18.9205 84.8846 19.642 84.8846 20.4545C84.8846 21.2727 85.0011 22.0028 85.234 22.6449C85.4727 23.2812 85.8221 23.7841 86.2823 24.1534C86.7482 24.517 87.3192 24.6989 87.9954 24.6989ZM105.62 21.4943V13.9091H108.706V27H105.714V24.6733H105.578C105.282 25.4062 104.797 26.0057 104.12 26.4716C103.45 26.9375 102.623 27.1705 101.64 27.1705C100.782 27.1705 100.024 26.9801 99.3647 26.5994C98.7113 26.2131 98.1999 25.6534 97.8306 24.9205C97.4613 24.1818 97.2766 23.2898 97.2766 22.2443V13.9091H100.362V21.767C100.362 22.5966 100.589 23.2557 101.044 23.7443C101.498 24.233 102.095 24.4773 102.833 24.4773C103.288 24.4773 103.728 24.3665 104.154 24.1449C104.581 23.9233 104.93 23.5938 105.203 23.1562C105.481 22.7131 105.62 22.1591 105.62 21.4943ZM111.878 27V13.9091H114.963V27H111.878ZM113.429 12.0511C112.941 12.0511 112.52 11.8892 112.168 11.5653C111.816 11.2358 111.64 10.8409 111.64 10.3807C111.64 9.91477 111.816 9.51989 112.168 9.19602C112.52 8.86648 112.941 8.7017 113.429 8.7017C113.924 8.7017 114.344 8.86648 114.691 9.19602C115.043 9.51989 115.219 9.91477 115.219 10.3807C115.219 10.8409 115.043 11.2358 114.691 11.5653C114.344 11.8892 113.924 12.0511 113.429 12.0511ZM117.966 27V25.0398L124.716 16.5767V16.4659H118.187V13.9091H128.491V16.0142L122.065 24.3324V24.4432H128.713V27H117.966ZM131.442 27V25.0398L138.192 16.5767V16.4659H131.664V13.9091H141.968V16.0142L135.542 24.3324V24.4432H142.189V27H131.442Z" fill="#F5F3F5"/>
</svg>
