<?xml version="1.0" standalone="no"?>
<!DOCTYPE svg PUBLIC "-//W3C//DTD SVG 20010904//EN"
 "http://www.w3.org/TR/2001/REC-SVG-20010904/DTD/svg10.dtd">
<svg version="1.0" xmlns="http://www.w3.org/2000/svg"
 width="512.000000pt" height="512.000000pt" viewBox="0 0 512.000000 512.000000"
 preserveAspectRatio="xMidYMid meet">

<g transform="translate(0.000000,512.000000) scale(0.100000,-0.100000)"
fill="#f5f3f5" stroke="none">
<path d="M2460 4668 c-25 -14 -58 -44 -75 -67 l-30 -43 0 -937 0 -938 28 -40
c85 -123 271 -122 354 1 l28 41 0 936 0 936 -27 39 c-44 62 -90 88 -167 92
-55 3 -74 -1 -111 -20z"/>
<path d="M1259 4246 c-62 -16 -86 -35 -219 -172 -400 -412 -610 -927 -610
-1499 0 -337 70 -645 214 -940 111 -227 245 -413 427 -592 173 -170 320 -276
529 -383 330 -168 646 -238 1025 -227 270 8 477 49 715 143 492 195 891 566
1130 1049 294 593 295 1295 5 1890 -114 234 -246 415 -436 600 -135 131 -166
149 -255 143 -116 -7 -194 -91 -194 -207 0 -79 24 -120 129 -218 150 -139 271
-303 366 -491 275 -548 233 -1215 -109 -1727 -253 -378 -625 -628 -1079 -727
-88 -19 -133 -22 -332 -23 -205 0 -242 3 -340 24 -605 130 -1088 557 -1280
1132 -148 447 -112 924 101 1339 89 173 178 293 323 439 68 68 130 139 138
159 8 19 14 58 14 87 0 139 -128 237 -262 201z"/>
</g>
</svg>
